<svg width="35" height="35" viewBox="0 0 35 35" fill="none" xmlns="http://www.w3.org/2000/svg">
<path d="M17.5 10.2083C18.467 10.2083 19.3943 9.82423 20.078 9.1405C20.7617 8.45677 21.1458 7.52944 21.1458 6.56251C21.1458 5.59557 20.7617 4.66824 20.078 3.98451C19.3943 3.30079 18.467 2.91667 17.5 2.91667C16.5331 2.91667 15.6057 3.30079 14.922 3.98451C14.2383 4.66824 13.8542 5.59557 13.8542 6.56251C13.8542 7.52944 14.2383 8.45677 14.922 9.1405C15.6057 9.82423 16.5331 10.2083 17.5 10.2083ZM19.6875 14.5833H15.3125C14.6351 14.5833 14.2968 14.5833 14.0117 14.611C12.6684 14.7432 11.4126 15.3371 10.4582 16.2915C9.50382 17.2459 8.90992 18.5018 8.77772 19.845C8.75002 20.1301 8.75002 20.4677 8.75002 21.1458H26.25C26.25 20.4684 26.25 20.1301 26.2223 19.845C26.0901 18.5018 25.4962 17.2459 24.5418 16.2915C23.5874 15.3371 22.3316 14.7432 20.9883 14.611C20.7032 14.5833 20.3656 14.5833 19.6875 14.5833Z" stroke="#ECF0F1" stroke-width="2.91667" stroke-linecap="round" stroke-linejoin="round"/>
<path d="M29.8959 19.53C31.2827 20.4225 32.0834 21.4762 32.0834 22.6042C32.0834 25.8256 25.5544 28.4375 17.5 28.4375C9.44565 28.4375 2.91669 25.8256 2.91669 22.6042C2.91669 21.4762 3.71731 20.4225 5.10419 19.53" stroke="#ECF0F1" stroke-width="2.91667" stroke-linecap="round" stroke-linejoin="round"/>
<path d="M13.8542 24.7917L17.5 28.4375L13.8542 32.0833" stroke="#ECF0F1" stroke-width="2.91667" stroke-linecap="round" stroke-linejoin="round"/>
</svg>
