<svg width="34" height="34" viewBox="0 0 34 34" fill="none" xmlns="http://www.w3.org/2000/svg">
<path d="M17 17C20.912 17 24.0833 13.8287 24.0833 9.91668C24.0833 6.00466 20.912 2.83334 17 2.83334C13.088 2.83334 9.91666 6.00466 9.91666 9.91668C9.91666 13.8287 13.088 17 17 17Z" stroke="#000" stroke-width="2"/>
<path d="M24.0833 19.8333H24.582C25.6177 19.8336 26.6176 20.2121 27.3939 20.8977C28.1703 21.5832 28.6695 22.5286 28.798 23.5563L29.3519 27.982C29.4017 28.3807 29.3662 28.7854 29.2476 29.1693C29.1291 29.5532 28.9302 29.9075 28.6643 30.2087C28.3983 30.5099 28.0714 30.7511 27.7051 30.9162C27.3388 31.0814 26.9416 31.1668 26.5398 31.1667H7.46014C7.05835 31.1668 6.66113 31.0814 6.29486 30.9162C5.92858 30.7511 5.60162 30.5099 5.33567 30.2087C5.06973 29.9075 4.87088 29.5532 4.75233 29.1693C4.63378 28.7854 4.59824 28.3807 4.64806 27.982L5.20056 23.5563C5.32904 22.5282 5.82873 21.5823 6.60565 20.8967C7.38258 20.2111 8.38321 19.8329 9.41939 19.8333H9.91664" stroke="#000" stroke-width="2" stroke-linecap="round" stroke-linejoin="round"/>
</svg>
